<svg width="55" height="55" viewBox="0 0 55 55" fill="none" xmlns="http://www.w3.org/2000/svg">
<g id="391050">
<g id="Group">
<path id="Path" d="M13.2081 24.7804L10.3701 21.0596L10.3555 21.063C8.46085 21.5381 6.75945 22.0923 5.29787 22.7109L2.0719 25.3087L4.83842 28.4225C6.4293 28.028 8.10977 28.4855 9.57308 29.5612L9.57179 29.558C9.57168 29.5573 9.57168 29.5563 9.57158 29.5555L9.57329 29.5611L13.2081 24.7804Z" fill="#003B6A"/>
<path id="Path_2" d="M19.1809 38.2954L13.5907 39.0412C13.4245 40.8257 12.7861 42.4046 11.7697 43.5074L12.4288 47.9765L16.7481 47.069C16.7481 47.069 17.1988 44.433 20.5867 42.7626L19.1809 38.2954Z" fill="#003B6A"/>
<path id="Path_3" d="M40.7918 24.7804L43.6298 21.0596L43.6444 21.063C45.5391 21.5381 47.2404 22.0923 48.7019 22.7109L51.9279 25.3086L49.1614 28.4224C47.5705 28.0279 45.89 28.4854 44.4267 29.5611L44.428 29.5579C44.4281 29.5571 44.4281 29.5562 44.4282 29.5554L44.4265 29.561L40.7918 24.7804Z" fill="#003B6A"/>
<path id="Path_4" d="M34.8191 38.2954L40.4093 39.0412C40.5755 40.8257 41.2139 42.4046 42.2303 43.5074L41.5712 47.9765L37.2519 47.069C37.2519 47.069 36.8012 44.433 33.4133 42.7626L34.8191 38.2954Z" fill="#003B6A"/>
</g>
<g id="Group_2">
<path id="Shape" fill-rule="evenodd" clip-rule="evenodd" d="M8.05449 46.9455C13.2487 52.1395 20.1545 55 27.5 55C34.8455 55 41.7516 52.1397 46.9455 46.9455C52.1395 41.7513 55 34.8455 55 27.5C55 20.1545 52.1397 13.2484 46.9455 8.05449C41.7513 2.86054 34.8455 0 27.5 0C20.1545 0 13.2484 2.86032 8.05449 8.05449C2.86054 13.2487 0 20.1545 0 27.5C0 34.8455 2.86032 41.7516 8.05449 46.9455ZM5.28666 27.5C5.28666 15.2517 15.2514 5.28666 27.5 5.28666C39.7484 5.28666 49.7133 15.2514 49.7133 27.5C49.7133 39.7484 39.7484 49.7133 27.5 49.7133C15.2517 49.7133 5.28666 39.7484 5.28666 27.5Z" fill="#008EFF"/>
<path id="Path_5" d="M10.8505 21.2221C10.8475 21.2294 9.42304 24.7053 10.0512 29.709L10.0525 29.7122C11.6214 30.8625 12.9411 32.7213 13.6322 35.0104C14.0636 36.4396 14.1974 37.8648 14.0748 39.1785C14.0749 39.1785 17.0947 38.9754 21.0791 42.8947C23.084 43.3761 25.246 43.6385 27.4999 43.6385C29.7538 43.6385 31.9157 43.3761 33.9207 42.8947C37.9051 38.9754 40.9249 39.1785 40.9249 39.1785C40.8023 37.8647 40.9363 36.4396 41.3676 35.0104C42.0586 32.7213 43.3782 30.8627 44.9472 29.7122L44.9485 29.709C45.5767 24.7054 44.1524 21.2295 44.1493 21.2221C39.5276 20.0669 33.7587 19.3804 27.4998 19.3804C21.2408 19.3804 15.4723 20.0669 10.8505 21.2221Z" fill="#008EFF"/>
</g>
<circle id="Oval" cx="27.5" cy="27.5" r="3.5" fill="#003B6A"/>
</g>
</svg>
